<svg width="220" height="220" viewBox="0 0 220 220" fill="none" xmlns="http://www.w3.org/2000/svg">
  <rect width="220" height="220" rx="48" fill="#2F241B"/>
  <path
    d="M60 42C60 37.5817 63.5817 34 68 34H92C96.4183 34 100 37.5817 100 42V84H133C159.51 84 181 105.49 181 132C181 158.51 159.51 180 133 180H100V178C100 182.418 96.4183 186 92 186H68C63.5817 186 60 182.418 60 178V42Z"
    fill="#C9AB73"
  />
  <path
    d="M100 118H131C139.837 118 147 125.163 147 134C147 142.837 139.837 150 131 150H100V118Z"
    fill="#2F241B"
  />
  <rect x="126" y="128" width="55" height="12" rx="6" fill="#F5EFE2"/>
  <rect x="174" y="128" width="18" height="12" rx="6" fill="#F97316"/>
  <path d="M171 116C177 108 178 100 175 92" stroke="#D6D3D1" stroke-width="6" stroke-linecap="round"/>
  <path d="M186 109C193 100 194 88 189 78" stroke="#E7E5E4" stroke-width="5" stroke-linecap="round"/>
  <path d="M134 128H153" stroke="#B45309" stroke-width="3" stroke-linecap="round"/>
  <circle cx="122" cy="72" r="8" fill="#F5EFE2" fill-opacity="0.95"/>
  <circle cx="143" cy="72" r="8" fill="#F5EFE2" fill-opacity="0.75"/>
</svg>
